<?xml version="1.0" encoding="utf-8"?>
<!-- Generator: Adobe Illustrator 23.0.3, SVG Export Plug-In . SVG Version: 6.00 Build 0)  -->
<svg version="1.1" id="Livello_1" xmlns="http://www.w3.org/2000/svg" xmlns:xlink="http://www.w3.org/1999/xlink" x="0px" y="0px"
	 width="886.6px" height="198px" viewBox="0 0 886.6 198" style="enable-background:new 0 0 886.6 198;" xml:space="preserve">
<style type="text/css">
	.st0{fill-rule:evenodd;clip-rule:evenodd;fill:url(#XMLID_2_);}
	.st1{fill:#FFFFFF;}
</style>
<g id="XMLID_632_">
	
		<linearGradient id="XMLID_2_" gradientUnits="userSpaceOnUse" x1="98.9776" y1="199.9553" x2="98.9776" y2="2" gradientTransform="matrix(1 0 0 -1 0 199.9553)">
		<stop  offset="0" style="stop-color:#F452FF"/>
		<stop  offset="1" style="stop-color:#832BC1"/>
	</linearGradient>
	<path id="XMLID_662_" class="st0" d="M194.1,171.6c-1.9,4.9-6.3,11.7-12.7,16.6c-3.6,2.8-8,5.5-13.9,7.3c-6.3,1.9-14.2,2.5-24,2.5
		H54.4c-9.8,0-17.6-0.7-24-2.5c-5.9-1.8-10.3-4.4-13.9-7.3c-6.3-4.8-10.8-11.7-12.7-16.6c-3.8-9.8-3.9-21-3.9-28l0,0V54.4l0,0
		c0-7.1,0.1-18.2,3.9-28c1.9-4.9,6.3-11.7,12.7-16.6c3.6-2.8,8-5.5,13.9-7.3C36.9,0.7,44.7,0,54.4,0l0,0h89.1l0,0
		c9.8,0,17.6,0.7,24,2.5c5.9,1.8,10.3,4.4,13.9,7.3c6.3,4.8,10.8,11.7,12.7,16.6c3.9,9.8,3.9,21,3.9,28v89.1
		C198,150.6,197.9,161.7,194.1,171.6z"/>
	<g>
		<path id="XMLID_657_" class="st1" d="M115.9,119.5c-0.3-2.4-1.1-4.1-2.6-5.7c-3-3.1-8.2-5.1-14.3-5.1c-6.1,0-11.3,2-14.3,5.1
			c-1.5,1.6-2.4,3.3-2.6,5.7c-0.5,4.6-0.2,8.6,0.3,15c0.5,6.1,1.5,14.2,2.8,22.4c0.9,5.9,1.6,9,2.3,11.3c1.1,3.7,5.1,6.9,11.5,6.9
			s10.5-3.2,11.5-6.9c0.7-2.2,1.4-5.4,2.3-11.3c1.3-8.2,2.2-16.3,2.8-22.4C116.2,128.1,116.5,124.1,115.9,119.5z"/>
		<path id="XMLID_655_" class="st1" d="M115.2,85.8c0,9-7.3,16.2-16.2,16.2s-16.2-7.3-16.2-16.2S90,69.6,99,69.6
			S115.2,76.9,115.2,85.8z"/>
		<path id="XMLID_653_" class="st1" d="M98.8,21.9C60.9,22,29.9,52.8,29.4,90.7c-0.4,30.7,19.2,56.9,46.6,66.6
			c0.7,0.3,1.3-0.3,1.3-1c-0.3-2.4-0.7-4.8-1-7.1c-0.1-0.9-0.7-1.5-1.4-1.9c-21.6-9.4-36.8-31.1-36.5-56.3
			c0.3-33,27.3-59.8,60.2-60.1c33.7-0.3,61.2,27.1,61.2,60.7c0,24.9-15,46.3-36.5,55.7c-0.8,0.3-1.3,1.1-1.4,1.9
			c-0.3,2.4-0.7,4.8-1,7.1c-0.1,0.7,0.6,1.3,1.3,1c27.1-9.5,46.6-35.4,46.6-65.7C168.6,53.1,137.2,21.8,98.8,21.9z"/>
		<path id="XMLID_651_" class="st1" d="M97.2,45c-24.7,0.9-44.5,21.3-44.8,46c-0.2,16.2,7.9,30.6,20.4,39.1c0.6,0.4,1.5-0.1,1.5-0.8
			c-0.2-2.8-0.2-5.3-0.1-8c0.1-0.9-0.3-1.6-0.9-2.2C65.7,112,61,101.8,61.3,90.6c0.5-19.8,16.4-35.9,36.2-36.7
			c21.5-0.9,39.2,16.4,39.2,37.7c0,10.8-4.6,20.6-11.9,27.5c-0.6,0.6-0.9,1.4-0.9,2.2c0.1,2.6,0.1,5.1-0.1,7.9
			c-0.1,0.7,0.8,1.3,1.5,0.8c12.3-8.4,20.4-22.6,20.4-38.5C145.7,65.3,123.7,43.9,97.2,45z"/>
	</g>
</g>
<g>
	<g>
		<path class="st1" d="M302.2,36.8v37.1v37.1h-9h-9V87.7V64.6l-8,23.2l-8,23.2h-7.8h-7.8l-8.1-23.2l-8.1-23.2v23.2v23.2h-9h-9V73.9
			V36.8h11h11l10.1,25.8l10.1,25.8l9.9-25.8l9.9-25.8h11H302.2z"/>
		<path class="st1" d="M379.2,36.3l-12.9,24.9l-12.9,24.9v12.4v12.4h-9.1h-9.1V98.5V86.1l-12.9-24.9l-12.9-24.9h10.3H330l7.2,15.2
			l7.2,15.2l7.2-15.2l7.2-15.2h10.2H379.2z"/>
		<path class="st1" d="M404.2,84.7v13.1v13.1h-9h-9V73.6V36.3h14.6h14.6c4.4,0,8.3,0.6,11.7,1.7s6.2,2.8,8.6,5
			c2.3,2.2,4.1,4.8,5.2,7.7s1.7,6.3,1.7,10c0,2.3-0.3,4.5-0.8,6.6s-1.3,4-2.3,5.8c-1,1.8-2.3,3.4-3.9,4.9s-3.3,2.7-5.4,3.7
			c-2,1-4.3,1.8-6.8,2.3s-5.2,0.8-8.1,0.8h-5.6H404.2z M424.3,60.7c0-3.3-0.9-5.7-2.7-7.4s-4.5-2.5-8.2-2.5h-4.6h-4.6v9.7v9.7h4.6
			h4.6c3.6,0,6.3-0.8,8.2-2.4S424.3,63.9,424.3,60.7z"/>
		<path class="st1" d="M506.2,40c2.9,1.6,5.4,3.6,7.7,5.9s4.2,4.9,5.9,7.8c1.7,2.9,2.9,6,3.7,9.3s1.2,6.8,1.2,10.4
			c0,3.7-0.4,7.1-1.3,10.4s-2.1,6.4-3.8,9.3c-1.7,2.9-3.6,5.5-5.9,7.8s-4.8,4.2-7.7,5.9c-2.9,1.6-5.9,2.9-9.1,3.7s-6.5,1.2-10,1.2
			c-3.5,0-6.8-0.4-10-1.2s-6.2-2-9.1-3.7c-2.9-1.6-5.4-3.6-7.7-5.9s-4.2-4.9-5.9-7.8c-1.7-2.9-2.9-6-3.8-9.3s-1.3-6.8-1.3-10.4
			c0-3.7,0.4-7.1,1.3-10.4s2.1-6.4,3.8-9.3c1.7-2.9,3.6-5.5,5.9-7.8s4.8-4.2,7.7-5.9c2.9-1.6,5.9-2.9,9.1-3.7s6.5-1.2,10-1.2
			c3.5,0,6.9,0.4,10.1,1.2S503.3,38.4,506.2,40z M472.9,57.7c-1.7,1.9-3,4.2-3.9,6.8s-1.3,5.6-1.3,8.9c0,3.3,0.4,6.2,1.3,8.8
			s2.2,4.9,3.9,6.8c1.7,1.9,3.8,3.4,6.1,4.4s5,1.5,8,1.5c2.9,0,5.6-0.5,7.9-1.5s4.4-2.4,6.2-4.4c1.8-1.9,3.1-4.2,4-6.8
			s1.3-5.5,1.3-8.8s-0.4-6.2-1.3-8.8s-2.2-4.9-3.9-6.8c-1.7-1.9-3.8-3.4-6.1-4.4s-5-1.5-8-1.5s-5.6,0.5-8,1.4S474.6,55.7,472.9,57.7
			z"/>
		<path class="st1" d="M597.3,92.9c-1.6,2.8-3.5,5.4-5.7,7.6s-4.8,4.1-7.8,5.7c-2.9,1.6-6.1,2.8-9.6,3.6s-7.2,1.2-11.2,1.2h-14.1
			h-14.1V73.6V36.3h14.1H563c4,0,7.8,0.4,11.2,1.2s6.7,1.9,9.6,3.5c2.9,1.5,5.5,3.4,7.7,5.6s4.1,4.7,5.7,7.5
			c1.6,2.8,2.7,5.8,3.5,9.1s1.2,6.7,1.2,10.3c0,3.7-0.4,7.1-1.2,10.4S598.9,90.1,597.3,92.9z M577.9,89.2c2-1.9,3.4-4.1,4.4-6.7
			s1.5-5.6,1.5-9c0-3.4-0.5-6.4-1.5-9s-2.4-4.9-4.4-6.7c-2-1.9-4.3-3.3-7-4.2s-5.9-1.4-9.4-1.4h-4.3h-4.3v21.3v21.3h4.3h4.3
			c3.5,0,6.6-0.5,9.4-1.4S575.9,91,577.9,89.2z"/>
		<path class="st1" d="M670,43c3.1,2.5,5.7,5.4,7.7,8.8s3.5,7.2,4.4,11.5h-9.6h-9.6c-0.7-1.7-1.6-3.3-2.7-4.6s-2.4-2.5-3.8-3.5
			c-1.5-1-3.1-1.7-4.8-2.2s-3.6-0.7-5.6-0.7c-2.6,0-5,0.5-7.2,1.5s-4,2.4-5.6,4.4c-1.6,1.9-2.8,4.2-3.6,6.8s-1.2,5.5-1.2,8.7
			c0,3.2,0.4,6.1,1.2,8.7s2,4.8,3.6,6.7c1.6,1.9,3.5,3.4,5.6,4.3s4.5,1.4,7.2,1.4c2,0,3.9-0.2,5.6-0.7s3.3-1.2,4.8-2.2
			c1.5-1,2.7-2.1,3.8-3.5s2-2.9,2.7-4.5h9.6h9.6c-0.9,4.2-2.4,8-4.4,11.4s-4.6,6.3-7.7,8.8c-3.1,2.5-6.6,4.4-10.6,5.7
			s-8.3,1.9-13,1.9c-3.6,0-7-0.4-10.2-1.2s-6.2-2-8.9-3.6c-2.7-1.6-5.2-3.5-7.3-5.8s-3.9-4.8-5.4-7.7c-1.5-2.9-2.6-6-3.4-9.3
			s-1.1-6.8-1.1-10.5c0-3.7,0.4-7.2,1.1-10.5s1.9-6.4,3.4-9.3c1.5-2.9,3.3-5.5,5.4-7.7s4.6-4.2,7.3-5.8c2.7-1.6,5.7-2.8,8.9-3.6
			s6.6-1.2,10.2-1.2c4.8,0,9.1,0.6,13,1.9S666.9,40.5,670,43z"/>
		<path class="st1" d="M738.5,97.3h-14h-14l-2.3,6.8l-2.3,6.8h-9.5h-9.5l13.7-37.1l13.7-37.1h10.4H735l13.7,37.1l13.7,37.1h-9.6
			h-9.6l-2.3-6.8L738.5,97.3z M733.8,83.6l-4.6-13.7l-4.6-13.7l-4.7,13.7l-4.7,13.7h9.3H733.8z"/>
		<path class="st1" d="M819.9,100.8c-1,1.7-2.2,3.1-3.7,4.5s-3.2,2.5-5.1,3.5c-2,1-4.1,1.7-6.5,2.2s-4.9,0.7-7.7,0.7
			c-4.2,0-8-0.5-11.5-1.5s-6.5-2.6-9.2-4.6c-2.7-2-4.8-4.5-6.3-7.3s-2.3-6.1-2.6-9.8h9.6h9.6c0.1,1.4,0.5,2.7,1,3.8s1.2,2.1,2,2.9
			c0.9,0.8,1.8,1.4,2.9,1.8s2.3,0.6,3.7,0.6c1.2,0,2.2-0.2,3.1-0.5s1.7-0.8,2.4-1.4c0.7-0.6,1.2-1.4,1.5-2.2s0.5-1.8,0.5-2.9
			c0-1-0.2-1.8-0.5-2.6s-0.8-1.5-1.4-2.1c-0.6-0.6-1.3-1.2-2.1-1.7s-1.6-1-2.5-1.4c-0.9-0.4-2-0.8-3.3-1.3s-2.7-1-4.3-1.6
			c-2.4-0.8-4.5-1.6-6.4-2.4s-3.6-1.6-5.1-2.3c-1.5-0.8-2.9-1.7-4.2-2.8s-2.5-2.4-3.5-3.9c-1.1-1.5-1.9-3.2-2.4-5.2
			s-0.8-4.1-0.8-6.5c0-2.2,0.3-4.3,0.8-6.2s1.4-3.7,2.5-5.3c1.1-1.6,2.5-3,4-4.3s3.3-2.3,5.3-3.2c2-0.9,4.1-1.5,6.4-1.9
			s4.7-0.6,7.3-0.6c4.2,0,7.9,0.5,11.2,1.5s6.2,2.5,8.6,4.4c2.4,2,4.4,4.3,5.7,7s2.2,5.8,2.5,9.2h-9.8H802c-0.2-1.2-0.5-2.3-0.9-3.3
			s-1-1.8-1.8-2.5c-0.7-0.7-1.6-1.3-2.5-1.6s-2.1-0.5-3.3-0.5c-1.1,0-2,0.1-2.9,0.4s-1.6,0.7-2.3,1.3c-0.7,0.6-1.1,1.3-1.5,2.1
			s-0.5,1.8-0.5,2.9c0,0.9,0.1,1.7,0.4,2.4s0.7,1.4,1.3,2c0.6,0.6,1.2,1.2,2,1.7s1.5,0.9,2.4,1.3c0.9,0.4,2,0.8,3.2,1.3
			s2.7,1,4.4,1.6c2.4,0.8,4.6,1.6,6.5,2.4s3.7,1.6,5.2,2.4c1.5,0.8,2.9,1.8,4.2,2.9s2.5,2.5,3.6,4c1.1,1.5,1.9,3.3,2.5,5.2
			s0.8,4.2,0.8,6.6c0,2-0.3,3.9-0.8,5.7S820.9,99.1,819.9,100.8z"/>
		<path class="st1" d="M886.6,36.3v7.2v7.2h-10.1h-10.1v30.2v30.2h-9.1h-9.1V80.8V50.6h-10h-10v-7.2v-7.2h29.3H886.6z"/>
	</g>
	<g>
		<path class="st1" d="M222.8,145.3v8.8v8.8h-2.1h-2.1v-21.1v-21.1h6.3h6.3c2.4,0,4.4,0.3,6.2,0.8s3.2,1.4,4.4,2.5s2,2.4,2.6,3.9
			s0.9,3.2,0.9,5.1c0,2-0.3,3.7-0.9,5.2s-1.5,2.8-2.7,3.9c-1.2,1.1-2.7,1.9-4.4,2.4s-3.8,0.8-6.1,0.8H227H222.8z M238.6,139.5
			c0.8-0.7,1.4-1.7,1.8-2.7s0.6-2.3,0.6-3.7c0-1.4-0.2-2.7-0.6-3.8s-1-2-1.8-2.8c-0.8-0.7-1.8-1.3-3.2-1.7s-2.9-0.6-4.7-0.6h-4h-4
			v8.7v8.7h4h4c1.8,0,3.4-0.2,4.7-0.6S237.8,140.2,238.6,139.5z"/>
		<path class="st1" d="M256.1,159.5h7.7h7.7v1.7v1.7h-9.8h-9.8v-21.1v-21.1h2.1h2.1v19.4V159.5z"/>
		<path class="st1" d="M301.5,152.6h-9.6h-9.6l-1.9,5.1l-1.9,5.1h-2.2H274l7.8-20.6l7.8-20.6h2.4h2.4l7.8,20.6l7.8,20.6h-2.3h-2.3
			l-1.9-5.1L301.5,152.6z M300.2,149.2l-4.2-11.4l-4.2-11.4l-4.2,11.4l-4.2,11.4h8.4H300.2z"/>
		<path class="st1" d="M343.9,120.7l-6.8,12.9l-6.8,12.9v8.2v8.2h-2.1h-2.1v-8.2v-8.2l-6.8-12.9l-6.8-12.9h2.4h2.4l5.4,10.6
			l5.4,10.6l5.4-10.6l5.4-10.6h2.4H343.9z"/>
		<path class="st1" d="M354,124.1v7.9v7.9h8.2h8.2v1.6v1.6h-8.2H354v8v8h9.1h9.1v1.7v1.7H361h-11.2v-21.1v-21.1H361h11.2v1.7v1.7
			h-9.1H354z"/>
		<path class="st1" d="M402.2,162.9l-5.8-8.8l-5.8-8.8h-3.4h-3.4v8.8v8.8h-2.1h-2.1v-21.1v-21.1h6.5h6.5c2.4,0,4.4,0.3,6.2,0.8
			s3.2,1.4,4.4,2.5c1.2,1.1,2,2.4,2.6,3.9s0.9,3.2,0.9,5.1c0,1.8-0.2,3.3-0.7,4.7s-1.2,2.6-2.2,3.6c-1,1-2.2,1.9-3.6,2.5
			s-3.1,1-5,1.2l5.9,8.8l5.9,8.8h-2.4H402.2z M383.8,142.1h4.2h4.2c3.4,0,5.9-0.7,7.6-2.2s2.5-3.7,2.5-6.6c0-3-0.8-5.2-2.5-6.7
			s-4.2-2.2-7.6-2.2H388h-4.2v8.9V142.1z"/>
	</g>
</g>
</svg>
